# xmcd
#
# Track frame offsets:
#	150
#	11767
#	24326
#	37108
#	50092
#	61297
#	75212
#	86059
#	98967
#	108370
#	119025
#	127820
#	138959
#	150725
#	163854
#	175986
#	187967
#	199317
#	208935
#	219739
#	232811
#	238773
#	248364
#
# Disc length: 3549
#
# Revision: 2
# Processed by: cddbd v1.5.1PL0 Copyright (c) Steve Scherf et al.
# Submitted via: EasyCDDAExtractor 6.0.0.1
# Normalized: r1:DSETVAR1
#
DISCID=3d0ddb17
DTITLE=Various Artist - Love Songs
DYEAR=2003
DGENRE=Country
TTITLE0=Adios Amigos
TTITLE1=Am I Losing You
TTITLE2=Danny Boy
TTITLE3=Four Walls
TTITLE4=Have I Told You Lately
TTITLE5=Have You Ever Been Lonely
TTITLE6=He'll Have To Go
TTITLE7=I Can't Stop Loving You
TTITLE8=I Won't Forget You
TTITLE9=In a Mansion Stands My Love
TTITLE10=Just Walk On By
TTITLE11=Leavin' On Your Mind
TTITLE12=I Love You Because
TTITLE13=Marry Me
TTITLE14=Missing You
TTITLE15=Mona Lisa
TTITLE16=moonlight and roses
TTITLE17=Oh, How I Miss You Tonight
TTITLE18=Put Your Sweet Lips Closer To The Phone
TTITLE19=Roses Are Red (My Love)
TTITLE20=TENNESSEE WALTZ
TTITLE21=Jim Reeves - The Hawaiian Wedding Song
TTITLE22=Whispering Hope
EXTD=
EXTT0=
EXTT1=
EXTT2=
EXTT3=
EXTT4=
EXTT5=
EXTT6=
EXTT7=
EXTT8=
EXTT9=
EXTT10=
EXTT11=
EXTT12=
EXTT13=
EXTT14=
EXTT15=
EXTT16=
EXTT17=
EXTT18=
EXTT19=
EXTT20=
EXTT21=
EXTT22=
PLAYORDER=
